# Blender v2.92.0 OBJ File: ''
# www.blender.org
mtllib Pokeball.mtl
o Pokeball
v -0.058560 0.171828 -0.325307
v -0.073445 0.180034 -0.272872
v -0.180036 0.068733 -0.261280
v -0.116219 0.092328 -0.252204
v -0.073571 0.155956 -0.263948
v -0.119412 0.223612 -0.301949
v -0.178637 0.084800 -0.266868
v -0.182093 0.073806 -0.323397
v -0.060252 0.150507 -0.317846
v -0.101551 0.072341 -0.300316
v -0.224914 0.137703 -0.299502
v -0.209117 0.151756 -0.359964
v -0.217422 0.161563 -0.365937
v -0.184166 0.221955 -0.319452
v -0.193618 0.206561 -0.316368
v -0.124598 0.210109 -0.358030
v -0.124286 0.060574 -0.302298
v -0.020763 0.067749 -0.301731
v -0.027684 0.220913 -0.301009
v -0.139835 0.026891 -0.260191
v -0.159708 0.036082 -0.269171
v -0.084408 0.058109 -0.256299
v -0.032902 0.130185 -0.268708
v -0.241480 0.077727 -0.307549
v -0.213719 0.046943 -0.347979
v -0.034783 0.075381 -0.308494
v -0.126344 0.015902 -0.311980
v -0.266575 0.173478 -0.350201
v -0.265692 0.099165 -0.381954
v -0.242183 0.113560 -0.380733
v -0.244944 0.188940 -0.349902
v -0.212559 0.195040 -0.402763
v -0.156834 0.253510 -0.349275
v -0.133189 0.235686 -0.395680
v -0.089357 0.239121 -0.384694
v -0.057574 0.227479 -0.311816
v -0.060165 0.218998 -0.369038
v -0.019726 0.159315 -0.335514
v -0.189977 -0.437747 -0.587135
v 0.108426 -0.404924 -0.503220
v -0.385366 -0.180043 -0.453388
v 0.146795 -0.334427 -0.993557
v -0.112953 -0.317084 -1.026069
v -0.354396 -0.329694 -0.788459
v 0.376019 -0.199293 -0.663650
v 0.258092 -0.087162 -0.348355
v -0.356506 -0.115045 -1.003993
v -0.508583 0.010630 -0.642299
v -0.245626 0.030037 -0.282743
v -0.150671 -0.001108 -0.226585
v -0.097499 -0.056189 -1.139172
v -0.417442 0.176951 -0.879800
v -0.339528 0.331166 -0.572911
v -0.282764 0.129651 -0.352522
v -0.264276 0.216711 -0.373993
v 0.006666 0.127605 -0.269020
v -0.040912 0.050923 -0.256975
v 0.444419 0.009488 -0.751349
v 0.128543 0.071657 -1.130550
v -0.254850 0.275842 -1.024297
v -0.135858 0.296699 -0.346681
v 0.272535 0.190114 -0.403532
v -0.029420 0.261153 -0.297188
v 0.320137 0.285575 -0.855846
v 0.003081 0.380615 -0.975105
v 0.073531 0.466883 -0.632411
v -0.249130 0.234915 -0.378011
v -0.038432 0.059100 -0.253071
v -0.006962 0.093857 -0.278540
v -0.211346 0.026224 -0.291133
v -0.288195 0.135922 -0.350219
v -0.070535 0.258191 -0.337399
v -0.001388 0.147391 -0.275323
vt 0.013884 1.000000
vt 0.000000 0.000000
vt 0.241066 0.000000
vt 0.128839 0.812110
vt 0.058662 0.337957
vt 0.498846 0.029917
vt 0.500514 0.984945
vt 0.376061 0.961733
vt 0.906493 0.263775
vt 0.860844 0.801285
vt 0.907684 0.734038
vt 0.041000 0.543440
vt 0.501402 1.000000
vt 0.617060 0.000000
vt 0.920318 0.258213
vt 0.377232 0.055596
vt 0.874930 1.000000
vt 0.894580 0.000000
vt 0.162280 1.000000
vt 0.098181 1.000000
vt 0.013889 0.000000
vt 0.178643 0.000000
vt 0.373039 0.973815
vt 0.098410 0.781782
vt 0.022333 0.416555
vt 0.775636 0.890735
vt 0.292686 0.944568
vt 0.977668 0.583444
vt 0.702233 0.933196
vt 0.483848 0.000000
vt 0.421292 1.000000
vt 0.055427 0.707307
vt 0.976203 0.456657
vt 0.044476 0.333659
vt 0.741785 0.079680
vt 0.292695 0.055427
vt 0.740597 1.000000
vt 0.847610 0.000000
vt 0.296399 0.067339
vt 0.626957 0.026183
vt 0.901820 0.218646
vt 0.970181 1.000000
vt 0.409339 0.080082
vt 0.175624 0.397519
vt 0.028317 0.235955
vt 0.283834 0.334650
vt 0.431186 0.193558
vt 0.975579 0.281618
vt 0.999467 0.466295
vt 0.926389 0.467401
vt 0.566103 0.381889
vt 0.410351 0.396600
vt 0.732557 0.404856
vt 0.657822 0.231297
vt 0.772170 0.406090
vt 0.053754 0.479258
vt 0.611777 0.592796
vt 0.700691 0.456680
vt 0.698733 0.526578
vt 0.805567 0.512481
vt 0.799486 0.456844
vt 0.501772 0.547200
vt 0.068538 0.633173
vt 0.322498 0.517111
vt 0.260112 0.638886
vt 0.436239 0.665751
vt 0.732664 0.595139
vt 0.892227 0.678648
vt 0.984008 0.630271
vt 1.000000 0.541667
vt 0.403451 0.842297
vt 0.749876 0.822697
vt 0.114184 0.822488
vt 0.771871 0.593668
vt 0.978511 0.834455
vt 0.958333 1.000000
vt 0.060785 0.274484
vt 0.932485 0.750851
vt 0.999072 0.500046
vt 0.390332 0.938734
vt 0.029224 0.667505
vt 0.970734 0.332341
vt 0.609787 0.061282
vt 0.794522 0.089591
vn 0.7043 -0.6432 0.3006
vn -0.2537 0.3373 0.9066
vn 0.2537 -0.3373 -0.9066
vn -0.8841 0.1449 0.4443
vn -0.2537 0.3374 0.9066
vn 0.3687 0.9287 -0.0407
vn 0.5679 -0.1689 0.8055
vn -0.4668 -0.7378 -0.4877
vn 0.1761 0.5377 -0.8245
vn 0.3262 0.0103 0.9452
vn -0.7451 -0.2695 0.6101
vn -0.2550 0.8886 0.3812
vn 0.0818 -0.8177 -0.5699
vn -0.3079 0.3707 -0.8762
vn 0.8085 0.0393 -0.5872
vn 0.1444 -0.9810 -0.1297
vn -0.2437 -0.9234 -0.2966
vn 0.6699 -0.7146 0.2015
vn 0.8155 -0.5051 0.2824
vn 0.7901 -0.4213 0.4453
vn -0.9136 -0.2926 -0.2825
vn -0.5543 -0.2707 0.7871
vn 0.5806 -0.8111 -0.0712
vn -0.8073 0.0600 0.5871
vn 0.1525 -0.4901 0.8582
vn -0.8068 0.3176 0.4982
vn -0.8256 0.2941 0.4815
vn 0.2819 -0.0243 0.9591
vn -0.8835 0.4683 -0.0111
vn -0.9532 0.2045 -0.2226
vn -0.9489 0.2554 -0.1853
vn 0.8143 -0.4304 -0.3895
vn 0.2076 -0.3043 -0.9297
vn -0.6484 -0.0444 -0.7600
vn -0.5194 0.6409 0.5652
vn 0.4163 0.1565 0.8956
vn 0.9113 -0.1352 0.3889
vn -0.0105 0.4460 -0.8950
vn -0.2446 0.9013 0.3575
vn 0.7725 0.1111 -0.6253
vn 0.3724 0.7357 0.5658
vn 0.8668 0.4616 0.1886
vn 0.6984 0.6819 0.2174
vn -0.3447 0.9246 -0.1619
vn 0.3752 0.8777 -0.2981
vn -0.2039 0.3057 0.9300
vn 0.0085 0.5860 0.8103
vn -0.1751 0.3487 0.9207
vn -0.2623 0.3300 0.9068
vn -0.2154 0.3418 0.9147
vn -0.2508 0.3493 0.9028
vn -0.2494 0.3440 0.9052
vn -0.2499 0.3539 0.9013
vn -0.3874 -0.0151 0.9218
vn -0.7147 -0.6608 0.2291
vn -0.0305 -0.9624 -0.2699
vn -0.2726 -0.5979 0.7538
vn -0.1479 -0.6218 0.7691
vn -0.8838 -0.4521 0.1202
vn -0.5474 -0.5956 -0.5878
vn -0.4700 0.0396 -0.8818
vn -0.4375 -0.1225 -0.8908
vn -0.3693 -0.3511 -0.8604
vn 0.0874 -0.4006 -0.9121
vn -0.9253 -0.0324 -0.3778
vn -0.8052 0.1082 0.5830
vn 0.2797 -0.0295 0.9596
vn -0.4921 0.2517 -0.8333
vn 0.7400 -0.1849 -0.6467
vn -0.1186 0.2740 -0.9544
vn 0.9035 0.0379 0.4268
vn -0.6377 0.7410 -0.2104
vn 0.3776 0.2877 0.8801
vn 0.4333 0.5393 -0.7221
vn -0.3300 0.9275 -0.1756
vn 0.0360 0.8468 0.5307
usemtl white2
s 1
f 1/1/1 2/2/1 3/3/1
f 4/4/2 5/5/2 6/6/2
f 7/7/2 4/4/2 6/6/2
f 8/8/3 9/9/3 10/10/3
f 11/11/2 7/7/2 6/6/2
f 12/12/3 9/9/3 8/8/3
f 13/13/4 3/3/4 14/14/4
f 15/15/5 11/11/2 6/6/2
f 16/16/3 9/9/3 12/12/3
f 1/17/6 14/14/6 2/18/6
f 17/19/7 1/1/7 3/3/7
f 13/13/8 17/19/8 3/3/8
f 14/14/9 1/17/9 13/13/9
usemtl white
f 18/20/10 19/21/10 20/22/10
f 21/23/2 22/24/2 23/25/2
f 24/26/2 21/23/2 23/25/2
f 25/27/3 26/28/3 27/29/3
f 28/30/11 29/31/11 20/22/11
f 30/32/3 26/28/3 25/27/3
f 31/33/2 24/26/2 23/25/2
f 32/34/3 26/28/3 30/32/3
f 33/35/2 31/33/2 23/25/2
f 34/36/3 26/28/3 32/34/3
f 35/37/12 28/30/12 19/38/12
f 36/39/2 33/35/2 23/25/2
f 37/40/3 26/28/3 34/36/3
f 38/41/3 26/28/3 37/40/3
f 29/31/13 18/20/13 20/22/13
f 28/30/14 35/37/14 29/31/14
f 19/38/15 18/42/15 35/37/15
usemtl black
f 39/43/16 42/44/16 40/45/16
f 43/46/17 39/43/17 44/47/17
f 40/48/18 45/49/19 46/50/20
f 48/51/21 47/52/21 44/47/21
f 49/53/22 41/54/22 50/55/22
f 42/44/23 45/56/19 40/45/18
f 49/53/24 48/51/24 41/54/24
f 46/50/25 50/55/25 40/48/25
f 53/57/26 48/51/26 54/58/26
f 54/58/27 55/59/27 53/57/27
f 56/60/28 57/61/28 46/50/28
f 53/57/29 52/62/30 48/51/31
f 58/63/32 45/56/32 42/44/32
f 51/64/33 59/65/33 42/44/33
f 52/62/34 60/66/34 51/64/34
f 61/67/35 53/57/35 55/59/35
f 62/68/36 56/60/36 46/50/36
f 58/69/37 46/50/20 45/70/19
f 60/66/38 65/71/38 59/65/38
f 66/72/39 53/57/39 61/67/39
f 64/73/40 58/63/40 59/65/40
f 66/72/41 63/74/41 62/68/41
f 64/75/42 62/68/42 58/69/42
f 64/75/43 66/72/43 62/68/43
f 66/72/44 65/71/44 60/66/44
f 65/76/45 66/72/45 64/75/45
f 67/77/46 68/78/47 69/79/48
f 70/80/49 68/78/49 67/77/49
f 71/81/50 70/80/50 67/77/50
f 73/82/51 72/83/52 67/77/53
f 73/82/54 67/77/46 69/79/48
f 41/54/55 44/47/55 39/84/55
f 39/43/56 43/46/56 42/44/56
f 50/55/57 41/54/57 39/84/57
f 40/48/58 50/55/58 39/84/58
f 41/54/59 48/51/59 44/47/59
f 44/47/60 47/52/60 43/46/60
f 47/52/61 51/64/62 43/46/63
f 43/46/64 51/64/64 42/44/64
f 52/62/30 47/52/65 48/51/31
f 49/53/66 54/58/66 48/51/66
f 46/50/67 57/61/67 50/55/67
f 47/52/61 52/62/68 51/64/62
f 42/44/69 59/65/69 58/63/69
f 60/66/70 59/65/70 51/64/70
f 58/69/71 62/68/71 46/50/71
f 53/57/72 60/66/72 52/62/72
f 62/68/73 63/74/73 56/60/73
f 59/65/74 65/71/74 64/73/74
f 66/72/75 60/66/75 53/57/75
f 61/67/76 63/74/76 66/72/76
